<?xml version="1.0" standalone="no"?>
<!DOCTYPE svg PUBLIC "-//W3C//DTD SVG 20010904//EN"
 "http://www.w3.org/TR/2001/REC-SVG-20010904/DTD/svg10.dtd">
<svg version="1.0" xmlns="http://www.w3.org/2000/svg"
 width="260.000000pt" height="260.000000pt" viewBox="0 0 260.000000 260.000000"
 preserveAspectRatio="xMidYMid meet">
<metadata>
Created by potrace 1.11, written by Peter Selinger 2001-2013
</metadata>
<g transform="translate(0.000000,260.000000) scale(0.100000,-0.100000)"
fill="#000000" stroke="none">
<path d="M651 2130 c-83 -591 -101 -738 -116 -908 -19 -231 -19 -336 0 -448
61 -353 230 -528 506 -526 176 2 320 58 444 174 170 158 274 358 327 623 90
454 -118 875 -460 927 -117 19 -284 -30 -418 -123 l-46 -31 6 28 c3 16 17 121
31 234 14 113 28 217 31 232 5 24 2 27 -28 32 -18 3 -81 7 -139 8 l-107 3 -31
-225z m696 -550 c63 -27 129 -95 162 -164 102 -215 49 -501 -126 -687 -262
-277 -603 -113 -603 292 0 367 307 670 567 559z"/>
<path d="M1142 1522 c-57 -21 -74 -32 -55 -39 7 -2 42 -27 78 -55 60 -46 131
-82 146 -72 7 4 -16 163 -25 171 -14 15 -96 12 -144 -5z"/>
<path d="M1333 1488 c3 -13 9 -49 12 -80 7 -56 8 -58 34 -52 24 6 60 39 61 56
0 10 -90 98 -102 98 -6 0 -8 -10 -5 -22z"/>
<path d="M998 1428 c-50 -53 -105 -143 -127 -210 -30 -87 -27 -93 21 -58 68
50 156 72 301 78 l127 4 0 34 c0 29 -4 34 -22 34 -34 1 -98 32 -147 74 -25 21
-62 46 -83 57 l-39 20 -31 -33z"/>
<path d="M1429 1339 c-17 -18 -37 -29 -53 -29 -25 0 -27 -3 -24 -36 3 -33 6
-37 56 -53 28 -10 61 -26 72 -36 20 -18 20 -17 20 16 0 38 -27 150 -38 161 -4
3 -19 -7 -33 -23z"/>
<path d="M1092 1189 c-76 -13 -154 -42 -207 -79 l-47 -32 4 -97 c5 -99 29
-181 53 -181 13 0 125 91 224 183 85 79 139 117 166 117 19 0 24 7 29 42 5 29
3 44 -6 50 -17 10 -147 8 -216 -3z"/>
<path d="M1346 1144 c-5 -42 -4 -48 28 -78 37 -34 52 -91 44 -161 -2 -19 -2
-35 0 -35 10 0 55 117 67 177 14 67 14 68 -8 86 -30 24 -67 43 -98 50 -25 6
-27 4 -33 -39z"/>
<path d="M1253 1043 c-18 -10 -81 -62 -141 -115 -59 -54 -130 -114 -156 -135
l-48 -38 45 -40 c40 -37 100 -65 138 -65 29 0 166 261 197 374 12 41 9 43 -35
19z"/>
<path d="M1325 1028 c-42 -123 -100 -249 -152 -331 -13 -21 -23 -40 -21 -42 2
-2 27 6 56 17 32 12 75 41 110 73 l57 53 3 96 c3 76 1 102 -12 121 -18 27 -34
32 -41 13z"/>
<path d="M1006 2318 c-3 -13 -12 -81 -21 -153 -8 -71 -18 -147 -21 -167 l-6
-38 63 30 c34 16 82 32 106 36 24 3 43 9 43 13 0 11 30 244 35 274 l5 27 -100
0 c-95 0 -100 -1 -104 -22z"/>
<path d="M1628 1925 c106 -95 193 -248 233 -407 28 -116 36 -313 16 -443 -49
-316 -245 -649 -469 -796 l-63 -41 58 6 c238 26 461 217 577 493 75 179 107
374 97 597 -17 374 -169 584 -457 631 l-45 8 53 -48z"/>
</g>
</svg>
